<?xml version="1.0" encoding="UTF-8"?>
<svg id="_レイヤー_2" data-name="レイヤー 2" xmlns="http://www.w3.org/2000/svg" viewBox="0 0 442.37 308.01">
  <defs>
    <style>
      .cls-1 {
        fill: #fff;
      }

      .cls-2 {
        isolation: isolate;
      }
    </style>
  </defs>
  <g id="date_place.svg" data-name="date place.svg">
    <g class="cls-2">
      <path class="cls-1" d="m13.19,293.21h9.11v13.36c-1.28.46-2.6.81-3.97,1.06s-2.85.38-4.43.38c-2.33,0-4.3-.52-5.91-1.57s-2.82-2.56-3.64-4.54-1.23-4.36-1.23-7.15.46-5.02,1.39-6.99,2.28-3.48,4.06-4.56,3.96-1.62,6.54-1.62c1.3,0,2.55.15,3.75.44s2.28.68,3.24,1.16l-1.62,4.22c-.76-.43-1.59-.78-2.5-1.04s-1.84-.39-2.81-.39c-1.41,0-2.61.35-3.61,1.06s-1.77,1.73-2.29,3.05-.79,2.92-.79,4.78c0,1.73.2,3.26.6,4.57s1.02,2.33,1.87,3.06,1.94,1.09,3.28,1.09c.62,0,1.17-.04,1.65-.11s.93-.16,1.35-.26v-5.68h-4.04v-4.34Z"/>
      <path class="cls-1" d="m34.18,281.96c2.11,0,3.86.28,5.25.83s2.42,1.39,3.09,2.51,1.01,2.53,1.01,4.23c0,1.11-.18,2.1-.53,2.97s-.84,1.62-1.48,2.27-1.37,1.19-2.21,1.63l6.42,11.25h-5.73l-5.17-9.97h-2.2v9.97h-5.19v-25.7h6.73Zm-.21,4.31h-1.34v7.26h1.44c1.45,0,2.52-.32,3.19-.96s1.01-1.58,1.01-2.84-.35-2.1-1.05-2.65-1.79-.82-3.25-.82Z"/>
      <path class="cls-1" d="m61.73,307.66h-13.17v-25.7h13.17v4.32h-7.98v5.85h7.44v4.34h-7.44v6.79h7.98v4.39Z"/>
      <path class="cls-1" d="m79.5,307.66h-13.17v-25.7h13.17v4.32h-7.98v5.85h7.44v4.34h-7.44v6.79h7.98v4.39Z"/>
      <path class="cls-1" d="m104.39,307.66h-6.36l-9.35-18.69h-.14c.06.82.11,1.62.14,2.39s.07,1.52.1,2.23.05,1.4.06,2.06v12.01h-4.73v-25.7h6.31l9.33,18.39h.12c-.04-.81-.07-1.58-.11-2.32s-.06-1.45-.09-2.14-.04-1.36-.05-2v-11.92h4.76v25.7Z"/>
      <path class="cls-1" d="m128.59,307.66h-5.19v-11.16h-8.28v11.16h-5.19v-25.7h5.19v10.12h8.28v-10.12h5.19v25.7Z"/>
      <path class="cls-1" d="m134.15,307.66v-25.7h5.19v25.7h-5.19Z"/>
      <path class="cls-1" d="m144.89,307.66v-25.7h5.19v21.3h8.63v4.39h-13.82Z"/>
      <path class="cls-1" d="m162.36,307.66v-25.7h5.19v21.3h8.63v4.39h-13.82Z"/>
      <path class="cls-1" d="m201.53,300.33c0,1.54-.34,2.88-1.02,4.03s-1.66,2.05-2.93,2.69-2.8.96-4.58.96c-.8,0-1.58-.05-2.34-.16s-1.5-.27-2.21-.48-1.4-.5-2.08-.83v-5.04c1.08.57,2.2,1.05,3.36,1.42s2.28.56,3.36.56c.76,0,1.38-.12,1.86-.36s.83-.57,1.05-.98.33-.89.33-1.42c0-.61-.15-1.13-.46-1.57s-.77-.87-1.4-1.28-1.42-.88-2.36-1.38c-.68-.36-1.34-.76-2-1.2s-1.24-.95-1.78-1.52-.96-1.26-1.27-2.06-.47-1.74-.47-2.83c-.01-1.5.3-2.79.95-3.88s1.57-1.93,2.77-2.52,2.63-.88,4.28-.87c1.2,0,2.35.15,3.45.44s2.22.71,3.35,1.27l-1.56,4.31c-1.01-.49-1.93-.86-2.77-1.12s-1.66-.38-2.47-.38c-.62,0-1.15.11-1.57.33s-.75.52-.98.9-.33.82-.33,1.33c0,.61.14,1.12.41,1.54s.72.82,1.34,1.22,1.45.87,2.48,1.41c1.18.62,2.19,1.27,3.01,1.96s1.46,1.47,1.89,2.36.65,1.95.65,3.19Z"/>
      <path class="cls-1" d="m225.96,294.78c0,2-.22,3.82-.65,5.45s-1.09,3.02-1.97,4.18-1.99,2.05-3.32,2.67-2.91.93-4.73.93-3.41-.31-4.75-.93-2.45-1.51-3.32-2.68-1.53-2.56-1.96-4.19-.65-3.45-.65-5.47c0-2.78.39-5.15,1.17-7.11s1.96-3.47,3.55-4.51,3.58-1.56,5.99-1.56,4.42.54,5.99,1.62,2.74,2.6,3.51,4.58,1.15,4.32,1.15,7.02Zm-15.94,0c0,1.88.19,3.47.56,4.77s.95,2.3,1.73,2.98,1.77,1.02,2.98,1.02,2.21-.33,2.99-1,1.34-1.66,1.71-2.96.55-2.91.55-4.81c0-2.86-.42-5.04-1.26-6.55s-2.17-2.26-3.98-2.26c-1.21,0-2.2.34-2.99,1.02s-1.37,1.68-1.74,2.99-.56,2.91-.56,4.8Z"/>
      <path class="cls-1" d="m248.88,281.96v16.93c0,1.88-.35,3.49-1.04,4.85s-1.73,2.41-3.11,3.16-3.11,1.12-5.17,1.12c-2.98,0-5.25-.79-6.82-2.38s-2.36-3.83-2.36-6.72v-16.95h5.17v16.45c0,1.88.35,3.2,1.04,3.97s1.71,1.16,3.06,1.16c.94,0,1.71-.18,2.3-.53s1.04-.91,1.34-1.67.44-1.75.44-2.97v-16.42h5.15Z"/>
      <path class="cls-1" d="m274.56,307.66h-6.36l-9.35-18.69h-.14c.06.82.11,1.62.14,2.39s.07,1.52.1,2.23.05,1.4.06,2.06v12.01h-4.73v-25.7h6.31l9.33,18.39h.12c-.04-.81-.07-1.58-.11-2.32s-.06-1.45-.09-2.14-.04-1.36-.05-2v-11.92h4.76v25.7Z"/>
      <path class="cls-1" d="m298.91,294.44c0,2.88-.47,5.31-1.42,7.27s-2.33,3.45-4.13,4.45-4,1.5-6.57,1.5h-6.66v-25.7h7.24c2.4,0,4.46.47,6.19,1.42s3.05,2.35,3.97,4.21,1.39,4.14,1.39,6.85Zm-5.36.19c0-1.91-.23-3.48-.69-4.71s-1.15-2.14-2.05-2.72-2.02-.88-3.34-.88h-2.16v16.93h1.71c2.23,0,3.87-.71,4.94-2.14s1.6-3.59,1.6-6.47Z"/>
      <path class="cls-1" d="m320.55,293.21h9.11v13.36c-1.28.46-2.6.81-3.97,1.06s-2.85.38-4.43.38c-2.33,0-4.3-.52-5.91-1.57s-2.82-2.56-3.64-4.54-1.23-4.36-1.23-7.15.46-5.02,1.39-6.99,2.28-3.48,4.06-4.56,3.96-1.62,6.54-1.62c1.3,0,2.55.15,3.75.44s2.28.68,3.24,1.16l-1.62,4.22c-.76-.43-1.59-.78-2.5-1.04s-1.84-.39-2.81-.39c-1.41,0-2.61.35-3.61,1.06s-1.77,1.73-2.29,3.05-.79,2.92-.79,4.78c0,1.73.2,3.26.6,4.57s1.02,2.33,1.87,3.06,1.94,1.09,3.28,1.09c.62,0,1.17-.04,1.65-.11s.93-.16,1.35-.26v-5.68h-4.04v-4.34Z"/>
      <path class="cls-1" d="m348.36,307.66l-1.6-6.15h-7.54l-1.6,6.15h-5.59l7.65-25.75h6.52l7.72,25.75h-5.55Zm-2.64-10.58l-1.62-6.4c-.11-.48-.23-1.01-.37-1.59s-.28-1.16-.41-1.73-.25-1.09-.34-1.55c-.07.45-.18.97-.32,1.56s-.28,1.19-.42,1.78-.26,1.08-.35,1.49l-1.62,6.43h5.45Z"/>
      <path class="cls-1" d="m363.42,281.96c2.11,0,3.86.28,5.25.83s2.42,1.39,3.09,2.51,1.01,2.53,1.01,4.23c0,1.11-.18,2.1-.53,2.97s-.84,1.62-1.48,2.27-1.37,1.19-2.21,1.63l6.42,11.25h-5.73l-5.17-9.97h-2.2v9.97h-5.19v-25.7h6.73Zm-.21,4.31h-1.34v7.26h1.44c1.45,0,2.52-.32,3.19-.96s1.01-1.58,1.01-2.84-.35-2.1-1.05-2.65-1.79-.82-3.25-.82Z"/>
      <path class="cls-1" d="m396.59,294.44c0,2.88-.47,5.31-1.42,7.27s-2.33,3.45-4.13,4.45-4,1.5-6.57,1.5h-6.66v-25.7h7.24c2.4,0,4.46.47,6.19,1.42s3.05,2.35,3.97,4.21,1.39,4.14,1.39,6.85Zm-5.36.19c0-1.91-.23-3.48-.69-4.71s-1.15-2.14-2.05-2.72-2.02-.88-3.34-.88h-2.16v16.93h1.71c2.23,0,3.87-.71,4.94-2.14s1.6-3.59,1.6-6.47Z"/>
      <path class="cls-1" d="m414.36,307.66h-13.17v-25.7h13.17v4.32h-7.98v5.85h7.44v4.34h-7.44v6.79h7.98v4.39Z"/>
      <path class="cls-1" d="m439.25,307.66h-6.36l-9.35-18.69h-.14c.06.82.11,1.62.14,2.39s.07,1.52.1,2.23.05,1.4.06,2.06v12.01h-4.73v-25.7h6.31l9.33,18.39h.12c-.04-.81-.07-1.58-.11-2.32s-.06-1.45-.09-2.14-.04-1.36-.05-2v-11.92h4.76v25.7Z"/>
    </g>
    <g>
      <g id="date">
        <g class="cls-2">
          <path class="cls-1" d="m355.28,237.96h-19.96v-58.11c0-1.87.02-3.9.07-6.08.04-2.19.1-4.4.17-6.63.07-2.23.15-4.33.24-6.29-.55.73-1.42,1.73-2.63,3.01-1.21,1.28-2.43,2.53-3.66,3.76l-10.12,9.09-10.66-11.89,29.53-26.8h17.02v99.94Z"/>
          <path class="cls-1" d="m379.21,195.51c0-6.15.4-12.11,1.2-17.88.8-5.76,2.15-11.12,4.07-16.06,1.91-4.94,4.55-9.29,7.9-13.02,3.35-3.74,7.55-6.64,12.61-8.72,5.06-2.07,11.14-3.11,18.25-3.11,2.1,0,4.34.09,6.73.27,2.39.18,4.52.48,6.39.89v16.47c-1.78-.41-3.66-.74-5.64-.99-1.98-.25-4-.38-6.05-.38-6.47,0-11.62,1.22-15.45,3.66-3.83,2.44-6.63,5.99-8.41,10.66-1.78,4.67-2.8,10.36-3.08,17.06h.75c1.14-2.37,2.57-4.41,4.31-6.12,1.73-1.71,3.78-3.04,6.15-4,2.37-.96,5.1-1.44,8.2-1.44,5.24,0,9.74,1.29,13.5,3.86,3.76,2.58,6.65,6.24,8.68,11.01,2.03,4.76,3.04,10.45,3.04,17.06,0,7.02-1.22,13.12-3.66,18.32-2.44,5.2-5.94,9.21-10.49,12.03-4.56,2.83-10.03,4.24-16.41,4.24-4.79,0-9.17-.93-13.16-2.8-3.99-1.87-7.44-4.64-10.36-8.31-2.92-3.67-5.16-8.24-6.73-13.71s-2.36-11.8-2.36-19Zm32.2,27.21c3.42,0,6.16-1.44,8.24-4.31,2.07-2.87,3.11-7.31,3.11-13.33,0-5.2-.92-9.18-2.77-11.96-1.85-2.78-4.61-4.17-8.31-4.17-2.51,0-4.71.66-6.6,1.98-1.89,1.32-3.34,3.03-4.34,5.13-1,2.1-1.5,4.35-1.5,6.77s.25,4.8.75,7.14c.5,2.35,1.26,4.48,2.29,6.39s2.3,3.45,3.83,4.61c1.53,1.16,3.29,1.74,5.3,1.74Z"/>
        </g>
        <g class="cls-2">
          <path class="cls-1" d="m354.09,108.1c0,2.05-.45,3.84-1.36,5.38s-2.21,2.73-3.9,3.59-3.73,1.28-6.11,1.28c-1.06,0-2.1-.07-3.12-.21s-2-.36-2.94-.64-1.87-.66-2.78-1.11v-6.73c1.44.77,2.93,1.4,4.48,1.9s3.04.75,4.48.75c1.02,0,1.84-.16,2.48-.48s1.11-.76,1.41-1.31.45-1.18.45-1.89c0-.81-.2-1.51-.61-2.1s-1.03-1.16-1.86-1.71-1.89-1.17-3.15-1.84c-.91-.48-1.79-1.02-2.66-1.61s-1.66-1.26-2.37-2.03-1.27-1.68-1.69-2.74-.62-2.32-.62-3.77c-.02-2,.41-3.73,1.27-5.18s2.09-2.57,3.69-3.36,3.5-1.18,5.71-1.16c1.59,0,3.13.2,4.61.59s2.96.95,4.46,1.69l-2.09,5.74c-1.34-.66-2.57-1.15-3.69-1.49s-2.21-.5-3.29-.5c-.83,0-1.53.14-2.1.43s-1,.69-1.3,1.2-.45,1.1-.45,1.77c0,.81.18,1.5.55,2.05s.96,1.1,1.79,1.63,1.93,1.16,3.3,1.88c1.58.83,2.92,1.7,4.02,2.61s1.94,1.96,2.52,3.14.87,2.6.87,4.25Z"/>
          <path class="cls-1" d="m383.91,83.6v22.57c0,2.5-.46,4.66-1.38,6.47s-2.3,3.21-4.15,4.21-4.14,1.49-6.89,1.49c-3.97,0-7-1.06-9.09-3.18s-3.14-5.11-3.14-8.96v-22.59h6.89v21.94c0,2.5.46,4.27,1.38,5.3s2.28,1.55,4.08,1.55c1.25,0,2.27-.23,3.07-.7s1.39-1.21,1.78-2.23.59-2.34.59-3.96v-21.89h6.87Z"/>
          <path class="cls-1" d="m418.15,117.87h-8.48l-12.47-24.91h-.19c.08,1.09.14,2.16.19,3.19s.09,2.02.13,2.98.07,1.87.08,2.74v16.01h-6.3v-34.27h8.41l12.45,24.52h.16c-.05-1.08-.09-2.11-.14-3.09s-.09-1.94-.12-2.86-.05-1.81-.07-2.67v-15.89h6.35v34.27Z"/>
        </g>
        <circle id="point" class="cls-1" cx="287.78" cy="190.65" r="10"/>
        <g class="cls-2">
          <path class="cls-1" d="m169.68,239.65h-19.96v-58.11c0-1.87.02-3.9.07-6.08.04-2.19.1-4.4.17-6.63.07-2.23.15-4.33.24-6.29-.55.73-1.42,1.73-2.63,3.01-1.21,1.28-2.43,2.53-3.66,3.76l-10.12,9.09-10.66-11.89,29.53-26.8h17.02v99.94Z"/>
          <path class="cls-1" d="m227.17,175.73c5.47,0,10.3,1.23,14.49,3.69,4.19,2.46,7.49,5.99,9.88,10.6,2.39,4.6,3.59,10.09,3.59,16.47,0,7.16-1.34,13.32-4.03,18.49-2.69,5.17-6.69,9.14-12,11.89-5.31,2.76-11.95,4.14-19.93,4.14-4.69,0-9.05-.42-13.06-1.26-4.01-.84-7.59-2.11-10.73-3.79v-17.91c3.24,1.78,6.92,3.27,11.04,4.48,4.12,1.21,8.03,1.81,11.72,1.81s6.78-.65,9.26-1.95c2.48-1.3,4.35-3.18,5.61-5.64,1.25-2.46,1.88-5.47,1.88-9.02,0-5.01-1.42-8.84-4.27-11.48-2.85-2.64-7.17-3.96-12.95-3.96-2.19,0-4.48.22-6.87.65-2.39.43-4.55.97-6.46,1.61l-7.38-4.58,3.35-50.24h48.81v17.23h-31.65l-1.57,20.1c1.78-.41,3.53-.73,5.26-.96,1.73-.23,3.74-.34,6.02-.34Z"/>
        </g>
        <g class="cls-2">
          <path class="cls-1" d="m174.41,108.49c0,2.05-.45,3.84-1.36,5.38s-2.21,2.73-3.9,3.59-3.73,1.28-6.11,1.28c-1.06,0-2.1-.07-3.12-.21s-2-.36-2.94-.64-1.87-.66-2.78-1.11v-6.73c1.44.77,2.93,1.4,4.48,1.9s3.04.75,4.48.75c1.02,0,1.84-.16,2.48-.48s1.11-.76,1.41-1.31.45-1.18.45-1.89c0-.81-.2-1.51-.61-2.1s-1.03-1.16-1.86-1.71-1.89-1.17-3.15-1.84c-.91-.48-1.79-1.02-2.66-1.61s-1.66-1.26-2.37-2.03-1.27-1.68-1.69-2.74-.62-2.32-.62-3.77c-.02-2,.41-3.73,1.27-5.18s2.09-2.57,3.69-3.36,3.5-1.18,5.71-1.16c1.59,0,3.13.2,4.61.59s2.96.95,4.46,1.69l-2.09,5.74c-1.34-.66-2.57-1.15-3.69-1.49s-2.21-.5-3.29-.5c-.83,0-1.53.14-2.1.43s-1,.69-1.3,1.2-.45,1.1-.45,1.77c0,.81.18,1.5.55,2.05s.96,1.1,1.79,1.63,1.93,1.16,3.3,1.88c1.58.83,2.92,1.7,4.02,2.61s1.94,1.96,2.52,3.14.87,2.6.87,4.25Z"/>
          <path class="cls-1" d="m197.84,118.26l-2.13-8.2h-10.05l-2.13,8.2h-7.45l10.2-34.34h8.7l10.29,34.34h-7.41Zm-3.52-14.11l-2.16-8.53c-.14-.64-.3-1.35-.49-2.12s-.37-1.54-.55-2.31-.33-1.45-.46-2.06c-.09.59-.23,1.29-.42,2.09s-.38,1.59-.56,2.37-.34,1.45-.47,1.99l-2.16,8.58h7.27Z"/>
          <path class="cls-1" d="m220.79,118.26h-6.87v-28.41h-7.85v-5.86h22.55v5.86h-7.83v28.41Z"/>
        </g>
        <g class="cls-2">
          <path class="cls-1" d="m6.84,238.75l23.83-59.13H0v-12.26h45.56v9.38l-23.73,62.01H6.84Z"/>
          <path class="cls-1" d="m111.23,166.97l-26.9,72.12h-12.6l27-72.12h12.5Z"/>
        </g>
      </g>
      <g class="cls-2">
        <path class="cls-1" d="m187.27,43.48h-26.63v-6.06l9.49-11.16c1.95-2.34,3.49-4.29,4.61-5.84,1.12-1.55,1.91-2.94,2.37-4.17.46-1.23.69-2.52.69-3.87,0-1.6-.42-2.84-1.25-3.71-.83-.87-2-1.3-3.5-1.3-1.39,0-2.72.34-4,1.01-1.28.67-2.65,1.73-4.12,3.18l-4.42-5.57c1.21-1.23,2.45-2.29,3.72-3.19,1.27-.9,2.68-1.58,4.23-2.05s3.34-.7,5.38-.7c2.54,0,4.75.49,6.62,1.48s3.33,2.35,4.35,4.09,1.54,3.73,1.54,5.98c0,2.13-.35,4.11-1.04,5.95-.69,1.84-1.76,3.7-3.19,5.58s-3.25,3.99-5.43,6.31l-5.62,6.36v.35h16.2v7.35Z"/>
        <path class="cls-1" d="m218.8,22.06c0,3.34-.23,6.36-.69,9.07-.46,2.71-1.21,5.02-2.26,6.94-1.04,1.92-2.43,3.4-4.15,4.44-1.72,1.04-3.83,1.55-6.33,1.55-3.01,0-5.5-.82-7.49-2.45-1.98-1.63-3.46-4.08-4.44-7.34-.98-3.26-1.46-7.33-1.46-12.22s.46-8.87,1.38-12.14c.92-3.27,2.36-5.74,4.32-7.41s4.53-2.5,7.69-2.5,5.53.84,7.51,2.53c1.98,1.69,3.46,4.17,4.44,7.46.98,3.28,1.46,7.3,1.46,12.07Zm-18.25,0c0,3.32.15,6.07.44,8.26s.79,3.82,1.48,4.91c.69,1.08,1.67,1.63,2.92,1.63s2.2-.54,2.9-1.61,1.2-2.71,1.49-4.89.44-4.95.44-8.29-.15-6.02-.44-8.22-.79-3.85-1.49-4.95-1.67-1.66-2.9-1.66-2.2.55-2.9,1.64-1.2,2.74-1.49,4.94-.44,4.95-.44,8.25Z"/>
        <path class="cls-1" d="m249.74,43.48h-26.63v-6.06l9.49-11.16c1.95-2.34,3.49-4.29,4.61-5.84,1.12-1.55,1.91-2.94,2.37-4.17.46-1.23.69-2.52.69-3.87,0-1.6-.42-2.84-1.25-3.71-.83-.87-2-1.3-3.5-1.3-1.39,0-2.72.34-4,1.01-1.28.67-2.65,1.73-4.12,3.18l-4.42-5.57c1.21-1.23,2.45-2.29,3.72-3.19,1.27-.9,2.68-1.58,4.23-2.05s3.34-.7,5.38-.7c2.54,0,4.75.49,6.62,1.48s3.33,2.35,4.35,4.09,1.54,3.73,1.54,5.98c0,2.13-.35,4.11-1.04,5.95-.69,1.84-1.76,3.7-3.19,5.58s-3.25,3.99-5.43,6.31l-5.62,6.36v.35h16.2v7.35Z"/>
        <path class="cls-1" d="m279.94,10.55c0,1.76-.34,3.33-1.03,4.7-.68,1.38-1.65,2.54-2.89,3.5-1.24.96-2.69,1.69-4.35,2.2v.18c3.05.49,5.36,1.59,6.93,3.3,1.57,1.71,2.36,3.97,2.36,6.78,0,2.54-.58,4.78-1.73,6.71-1.15,1.93-2.87,3.44-5.16,4.53s-5.14,1.63-8.55,1.63c-2.11,0-4.05-.17-5.83-.5-1.78-.33-3.54-.89-5.3-1.67v-7.65c1.66.9,3.36,1.58,5.11,2.05,1.75.47,3.39.7,4.94.7,2.71,0,4.65-.55,5.82-1.64,1.16-1.09,1.74-2.63,1.74-4.6,0-1.31-.29-2.4-.86-3.27-.58-.87-1.53-1.52-2.87-1.95-1.34-.43-3.14-.64-5.41-.64h-2.7v-6.86h2.75c2.15,0,3.85-.25,5.1-.75,1.25-.5,2.14-1.2,2.68-2.11.54-.91.81-1.97.81-3.18,0-1.54-.44-2.73-1.3-3.57-.87-.84-2.24-1.26-4.12-1.26-1.07,0-2.08.14-3.02.41s-1.82.63-2.64,1.08-1.59.95-2.31,1.49l-3.69-6.06c1.72-1.33,3.59-2.34,5.62-3.03,2.03-.69,4.4-1.04,7.12-1.04,3.93,0,7.04.91,9.33,2.72,2.29,1.82,3.44,4.41,3.44,7.79Z"/>
      </g>
    </g>
  </g>
</svg>