<?xml version="1.0" encoding="UTF-8"?>
<svg id="_レイヤー_2" data-name="レイヤー 2" xmlns="http://www.w3.org/2000/svg" viewBox="0 0 827.65 224.84">
  <defs>
    <style>
      .cls-1 {
        fill: #fff;
      }

      .cls-2 {
        fill: #7ebfda;
      }
    </style>
  </defs>
  <g id="_レイヤー_1-2" data-name="レイヤー 1">
    <g>
      <path class="cls-1" d="M98.79,82.32h-25.08l-6.62-16.46H31.82l-6.74,16.46H0L35.92,1.11h27.07l35.8,81.21Zm-37.32-30.59l-11.89-29.65-12.01,29.65h23.91Z"/>
      <path class="cls-1" d="M188.42,47.4c0,6.95-1.3,12.88-3.9,17.78-2.6,4.9-6.04,8.78-10.31,11.63-4.28,2.85-8.89,4.9-13.83,6.15-4.94,1.25-9.87,1.88-14.79,1.88-6.88,0-13.56-1.17-20.07-3.52s-11.94-6.33-16.32-11.95c-4.38-5.62-6.56-12.95-6.56-21.97V2.57h24.43V41.07c0,5.35,.77,9.78,2.31,13.27,1.54,3.5,3.69,6.06,6.45,7.68,2.75,1.62,6.01,2.43,9.76,2.43s6.78-.8,9.55-2.4c2.77-1.6,4.93-4.14,6.47-7.62,1.54-3.48,2.31-7.89,2.31-13.24V2.57h24.49V47.4Z"/>
      <path class="cls-1" d="M289.7,43.18c0,8.32-1.51,15-4.54,20.04s-6.59,9.12-10.69,12.25c-5.82,4.57-13.96,6.86-24.43,6.86h-43.83V1.11h33.75c5.08,0,9.42,.26,13.04,.79s6.87,1.27,9.76,2.23c2.89,.96,5.35,2.03,7.38,3.22,2.03,1.19,3.85,2.47,5.45,3.84,2.77,2.27,5.21,4.94,7.29,8.03,2.09,3.09,3.75,6.66,4.98,10.72,1.23,4.06,1.85,8.48,1.85,13.24Zm-24.9-1.05c0-6.6-1.26-11.75-3.78-15.44s-5.55-6.16-9.08-7.41c-3.54-1.25-7.14-1.88-10.81-1.88h-10.43v48.11h10.43c6.41,0,11.95-1.52,16.64-4.57s7.03-9.32,7.03-18.81Z"/>
      <path class="cls-1" d="M329.42,82.32h-24.49V1.11h24.49V82.32Z"/>
      <path class="cls-1" d="M98.79,222.32h-25.08l-6.62-16.46H31.82l-6.74,16.46H0l35.92-81.21h27.07l35.8,81.21Zm-37.32-30.59l-11.89-29.65-12.01,29.65h23.91Z"/>
      <path class="cls-1" d="M193.07,183.18c0,8.32-1.51,15-4.54,20.04s-6.59,9.12-10.69,12.25c-5.82,4.57-13.96,6.86-24.43,6.86h-43.83v-81.21h33.75c5.08,0,9.42,.26,13.04,.79s6.87,1.27,9.76,2.23c2.89,.96,5.35,2.03,7.38,3.22,2.03,1.19,3.85,2.47,5.45,3.84,2.77,2.27,5.21,4.94,7.29,8.03,2.09,3.09,3.75,6.66,4.98,10.72,1.23,4.06,1.85,8.48,1.85,13.24Zm-24.9-1.05c0-6.6-1.26-11.75-3.78-15.44s-5.55-6.16-9.08-7.41c-3.54-1.25-7.14-1.88-10.81-1.88h-10.43v48.11h10.43c6.41,0,11.95-1.52,16.64-4.57s7.03-9.32,7.03-18.81Z"/>
      <path class="cls-1" d="M284.76,141.11l-36.62,82.27h-16.17l-35.92-82.27h25.49l18.57,46.88,19.1-46.88h25.55Z"/>
      <path class="cls-1" d="M357.12,222.32h-61.23v-81.21h60.23v16.29h-35.74v14.88h34.1v16.35h-34.1v17.34h36.74v16.35Z"/>
      <path class="cls-1" d="M461.71,222.32h-21.8l-42.13-45.23v45.23h-24.26v-81.21h21.74l42.01,45v-45h24.43v81.21Z"/>
      <path class="cls-1" d="M558.53,160.86h-29.77v61.46h-24.43v-61.46h-29.77v-19.75h83.96v19.75Z"/>
      <path class="cls-1" d="M657.44,187.4c0,6.95-1.3,12.88-3.9,17.78-2.6,4.9-6.04,8.78-10.31,11.63-4.28,2.85-8.89,4.9-13.83,6.15-4.94,1.25-9.87,1.88-14.79,1.88-6.88,0-13.56-1.17-20.07-3.52s-11.94-6.33-16.32-11.95c-4.38-5.62-6.56-12.95-6.56-21.97v-44.82h24.43v38.5c0,5.35,.77,9.78,2.31,13.27,1.54,3.5,3.69,6.06,6.45,7.68,2.75,1.62,6.01,2.43,9.76,2.43s6.78-.8,9.55-2.4c2.77-1.6,4.93-4.14,6.47-7.62,1.54-3.48,2.31-7.89,2.31-13.24v-38.61h24.49v44.82Z"/>
      <path class="cls-1" d="M755.29,222.32h-26.31l-6.39-14.41c-2.34-5.27-4.45-9.13-6.33-11.57-1.88-2.44-3.7-4-5.48-4.69-1.78-.68-4.07-1.03-6.88-1.03h-2.75v31.7h-24.49v-81.21h41.66c6.72,0,12.23,1.37,16.52,4.1,4.3,2.73,7.39,6.06,9.29,9.96,1.89,3.91,2.84,7.62,2.84,11.13,0,4.1-.79,7.57-2.37,10.4-1.58,2.83-3.25,4.89-5.01,6.18s-3.73,2.52-5.92,3.69c2.62,1.52,4.78,3.33,6.47,5.42,1.7,2.09,4.01,6.32,6.94,12.69l8.2,17.64Zm-33.28-55.55c0-3.75-1.23-6.37-3.69-7.85-2.46-1.48-6.47-2.23-12.01-2.23h-5.16v19.57h5.27c5.98,0,10.07-.65,12.28-1.96,2.21-1.31,3.31-3.82,3.31-7.53Z"/>
      <path class="cls-1" d="M827.65,222.32h-61.23v-81.21h60.23v16.29h-35.74v14.88h34.1v16.35h-34.1v17.34h36.74v16.35Z"/>
      <path class="cls-1" d="M433.89,25.69c-1.95-5.06-4.82-9.49-8.61-13.3s-8.62-6.83-14.5-9.05-12.57-3.34-20.07-3.34c-10.04,0-18.54,1.94-25.52,5.83-6.97,3.89-12.14,9-15.5,15.35-3.36,6.35-5.04,13.17-5.04,20.48s1.69,14.08,5.07,20.45c3.38,6.37,8.54,11.5,15.5,15.41,6.95,3.91,15.45,5.86,25.49,5.86s18.34-1.88,25.25-5.62,12.12-8.81,15.62-15.18c3.5-6.37,5.24-13.34,5.24-20.92,0-5.59-.98-10.91-2.93-15.97Zm-43.07,22.74c-3.87,0-7-3.13-7-7s3.13-7,7-7,7,3.13,7,7-3.13,7-7,7Z"/>
      <path class="cls-2" d="M410.52,33.31c-.9-2.52-2.26-4.71-4.07-6.56-1.82-1.85-4.03-3.3-6.65-4.34-2.62-1.03-5.64-1.55-9.08-1.55-6.56,0-11.72,1.91-15.47,5.74-3.75,3.83-5.62,8.85-5.62,15.06s1.88,11.24,5.65,15.09c3.77,3.85,8.92,5.77,15.44,5.77,4.49,0,8.32-.89,11.48-2.67,3.16-1.78,5.57-4.24,7.21-7.38,1.64-3.14,2.46-6.75,2.46-10.81,0-3.05-.45-5.83-1.35-8.35Zm-19.69,15.12c-3.87,0-7-3.13-7-7s3.13-7,7-7,7,3.13,7,7-3.13,7-7,7Z"/>
    </g>
  </g>
</svg>