<?xml version="1.0" encoding="UTF-8"?>
<svg id="_レイヤー_2" data-name="レイヤー 2" xmlns="http://www.w3.org/2000/svg" xmlns:xlink="http://www.w3.org/1999/xlink" viewBox="0 0 403.72 319.54">
  <defs>
    <style>
      .cls-1 {
        fill: none;
      }

      .cls-2 {
        clip-path: url(#clippath);
      }

      .cls-3 {
        fill: #fff;
      }

      .cls-4 {
        fill: #fcec74;
      }

      .cls-5 {
        fill: #7eb6cd;
      }

      .cls-6 {
        fill: #539ebc;
      }

      .cls-7 {
        clip-path: url(#clippath-1);
      }
    </style>
    <clipPath id="clippath">
      <path class="cls-1" d="M169.8,40.45c-4.44-12.69-12.76-23.7-23.88-31.26-13-8.83-30.25-14.75-43.92,.56-25,28,0,48,11,62s12.1,65.48,13,89c1,26,31.31,71.04,92.65,74.79,6.07,.37,11.63,3.51,15.09,8.51l44.38,64.11c2.45,3.55,6.67,5.45,10.95,4.92,17.45-2.17,61.61-10.89,68.7-44.08,.74-3.47-.75-7.05-3.72-8.99l-56.61-36.93c-3.33-2.17-4.12-6.74-1.65-9.85,6.42-8.08,14.55-25.09-1.6-49.48-17.96-27.12-77.23-70.44-103.02-88.58-7.96-5.6-13.97-13.56-17.18-22.75l-4.19-11.97Z"/>
    </clipPath>
    <clipPath id="clippath-1">
      <path class="cls-1" d="M168.8,40.45c-4.44-12.69-12.74-23.73-23.88-31.26-6.38-4.32-25.23-11.32-43.92,.56-31.68,20.14,0,48,11,62s12.1,65.48,13,89c1,26,31.31,71.04,92.65,74.79,6.07,.37,11.63,3.51,15.09,8.51l44.38,64.11c2.45,3.55,6.67,5.45,10.95,4.92,17.45-2.17,61.61-10.89,68.7-44.08,.74-3.47-.75-7.05-3.72-8.99l-56.61-36.93c-3.33-2.17-4.12-6.74-1.65-9.85,6.42-8.08,14.55-25.09-1.6-49.48-17.96-27.12-77.23-70.44-103.02-88.58-7.96-5.6-13.97-13.56-17.18-22.75l-4.19-11.97Z"/>
    </clipPath>
  </defs>
  <path class="cls-6" d="M171.95,125.52c-21.82,20.61-79.24,62.68-146.15,13.98-.83-.61-1.43-1.5-1.63-2.51-.51-2.63,.74-7.02,15.72-5.61,4.03,.38,6.2-4.6,3.15-7.25-17.32-15.06-46.09-42.36-25.9-41.58,3.51,.14,5.6-3.88,3.45-6.67C6.47,57.54-21.07,17.4,27.8,40c58.78,27.18,70.69,69.03,140.49,75.04,5.24,.45,7.49,6.87,3.66,10.49Z"/>
  <path class="cls-5" d="M169.8,40.45c-4.44-12.69-14.83-23.15-27.8-26.7-8.92-2.44-31,0-38,7-26.54,26.54-2,37,9,51s12.1,65.48,13,89c1,26,31.31,71.04,92.65,74.79,6.07,.37,11.63,3.51,15.09,8.51l44.38,64.11c2.45,3.55,6.67,5.45,10.95,4.92,17.45-2.17,61.61-10.89,68.7-44.08,.74-3.47-.75-7.05-3.72-8.99l-56.61-36.93c-3.33-2.17-4.12-6.74-1.65-9.85,6.42-8.08,14.55-25.09-1.6-49.48-17.96-27.12-77.23-70.44-103.02-88.58-7.96-5.6-15.95-10.23-19.17-19.42l-2.2-15.3Z"/>
  <g class="cls-2">
    <path class="cls-4" d="M102.09,58.79s-8.05-37.57,31.63-27.72c14.7,3.65,25.46,16.4,26.03,31.53,.04,1.15,.05,2.34,.02,3.56-.11,4.28,1.77,8.35,5.07,11.08,9.98,8.25,45.17,16.5,14.17,30.5-20.14,9.1,57.38,71.67,92.19,99.53,6.98,5.59,4.93,16.69-3.59,19.41-29.97,9.57-87.8,23.25-123.6,1.06-50-31-41.92-168.96-41.92-168.96Z"/>
  </g>
  <path class="cls-4" d="M360.82,290.2l-99.06-81.36c-2.03-1.66-5.04-1.25-6.55,.9l-11.34,16.21c-1.5,2.15-.86,5.12,1.4,6.46l110.4,65.15c4.78,2.82,9.44-3.83,5.14-7.36Z"/>
  <path class="cls-4" d="M310.21,313.19l-67.78-94.88c-1.35-1.89-4.03-2.23-5.81-.73l-14.34,12.1c-1.78,1.5-1.9,4.2-.26,5.85l82.12,82.77c3.45,3.48,8.92-1.13,6.07-5.12Z"/>
  <path class="cls-6" d="M180.41,127.38c1.4,1.66,2.74,3.36,3.95,5.16,7.01,10.48,35.44,45.27,92.11,23.08,8.62-3.38,17.73-5.36,26.96-6.1,28.84-2.32,88.26-6.68,16.32-16.99,0,0,138.86-31.43,47.01-38.36,0,0,88.72-66.25-8.72-43.74,51.36-60.37,30.98-85.67-152.75,35.11,0,0-42.89,20.43-24.88,41.84Z"/>
  <g class="cls-7">
    <path class="cls-3" d="M87.85,42.76s19.31-24.41,43.95-8.17c24.64,16.24,.97,44.03-21.86,46.04-22.83,2.01-22.09-37.87-22.09-37.87Z"/>
  </g>
  <path d="M65.61,87.87c-2.76,3.08-17.28-38.71,32.91-54.44,2.65-.83,5.54-.16,7.45,1.77,4.67,4.7,12.25,14.24,7.95,23.35-1.11,2.36-3.51,3.9-6.2,4.05-6.7,.36-22.79,3.73-42.11,25.27Z"/>
  <ellipse cx="120.51" cy="36.25" rx="3.5" ry="4.5" transform="translate(-5.17 29.77) rotate(-13.79)"/>
</svg>