<?xml version="1.0" encoding="UTF-8"?>
<svg id="_レイヤー_2" data-name="レイヤー 2" xmlns="http://www.w3.org/2000/svg" viewBox="0 0 181.91 439.56">
  <defs>
    <style>
      .cls-1 {
        fill: #9fd7ba;
      }

      .cls-2 {
        fill: none;
        stroke: #9fd7ba;
        stroke-linecap: round;
        stroke-linejoin: round;
        stroke-width: 4px;
      }
    </style>
  </defs>
  <path class="cls-2" d="M124.66,60.82s-86.24,58.45-61.12,198.73S2,437.56,2,437.56"/>
  <path class="cls-1" d="M134.22,26.52c3.49,18.06-8.65,35.6-8.65,35.6,0,0-17.8-11.75-21.28-29.82-2.08-10.78,1.4-21.36,4.55-28.15,2.12-4.57,7.02-5.51,10.69-2.06,5.45,5.13,12.62,13.66,14.7,24.43Z"/>
  <path class="cls-1" d="M80.86,57.19c14.27,11.62,16.21,32.85,16.21,32.85,0,0-21.19,2.41-35.46-9.21-8.51-6.93-12.64-17.28-14.58-24.51-1.31-4.86,1.85-8.74,6.87-8.44,7.47,.44,18.44,2.38,26.96,9.31Z"/>
  <path class="cls-1" d="M52.09,102.79c16.32,8.5,22.5,28.91,22.5,28.91,0,0-20.27,6.63-36.59-1.87-9.73-5.07-15.86-14.38-19.22-21.06-2.26-4.5,.05-8.93,5.03-9.65,7.4-1.08,18.54-1.39,28.28,3.68Z"/>
  <path class="cls-1" d="M40.66,165.49c15.26,10.28,19.12,31.25,19.12,31.25,0,0-20.89,4.32-36.15-5.96-9.1-6.13-14.15-16.07-16.74-23.09-1.74-4.72,1.05-8.87,6.08-9.03,7.48-.24,18.58,.7,27.69,6.83Z"/>
  <path class="cls-1" d="M34.78,234.92c17.79,4.68,28.34,23.21,28.34,23.21,0,0-18.3,10.95-36.09,6.27-10.61-2.79-18.65-10.51-23.41-16.29-3.2-3.89-1.93-8.72,2.77-10.53,6.98-2.69,17.78-5.46,28.39-2.67Z"/>
  <path class="cls-1" d="M41.58,305.3c17.11,6.77,25.36,26.44,25.36,26.44,0,0-19.48,8.68-36.58,1.91-10.2-4.04-17.26-12.67-21.29-18.97-2.71-4.24-.87-8.89,4.01-10.12,7.25-1.84,18.3-3.29,28.51,.75Z"/>
  <path class="cls-1" d="M150.2,84.45c-18.22-2.53-30.89-19.69-30.89-19.69,0,0,16.87-13.04,35.09-10.51,10.87,1.51,19.76,8.23,25.17,13.4,3.64,3.48,2.95,8.43-1.5,10.78-6.61,3.5-17,7.53-27.87,6.02Z"/>
  <path class="cls-1" d="M115.26,129.44c-18.35-1.28-32.17-17.52-32.17-17.52,0,0,15.94-14.17,34.29-12.9,10.95,.76,20.28,6.85,26.03,11.64,3.87,3.22,3.52,8.2-.76,10.86-6.36,3.95-16.45,8.68-27.39,7.92Z"/>
  <path class="cls-1" d="M97.68,177.14c-18.32,1.66-34.55-12.19-34.55-12.19,0,0,13.48-16.52,31.8-18.18,10.93-.99,21.11,3.54,27.55,7.35,4.33,2.57,4.78,7.54,.98,10.84-5.65,4.91-14.86,11.18-25.79,12.17Z"/>
  <path class="cls-1" d="M97.54,233.79c-17.24,6.43-36.54-2.65-36.54-2.65,0,0,8.65-19.49,25.89-25.92,10.28-3.83,21.3-2.15,28.52-.17,4.86,1.33,6.6,6.01,3.8,10.2-4.16,6.22-11.38,14.71-21.67,18.54Z"/>
  <path class="cls-1" d="M102.17,292.4c-17.78,4.71-36.11-6.2-36.11-6.2,0,0,10.51-18.56,28.3-23.27,10.61-2.81,21.41-.06,28.4,2.62,4.7,1.8,5.98,6.63,2.79,10.52-4.75,5.79-12.77,13.52-23.37,16.33Z"/>
  <path class="cls-1" d="M98.44,357.34c-18.4,.14-33.43-14.98-33.43-14.98,0,0,14.8-15.36,33.19-15.5,10.97-.09,20.75,5.26,26.85,9.59,4.11,2.91,4.15,7.91,.08,10.88-6.03,4.42-15.73,9.92-26.7,10.01Z"/>
</svg>