<?xml version="1.0" encoding="UTF-8"?>
<svg id="_レイヤー_2" data-name="レイヤー 2" xmlns="http://www.w3.org/2000/svg" xmlns:xlink="http://www.w3.org/1999/xlink" viewBox="0 0 247.01 441.61">
  <defs>
    <style>
      .cls-1 {
        fill: none;
      }

      .cls-2 {
        clip-path: url(#clippath);
      }

      .cls-3 {
        fill: #7db3a5;
      }

      .cls-4 {
        fill: #37847c;
      }
    </style>
    <clipPath id="clippath">
      <path class="cls-1" d="M200.08,435.97c-4.18,5.49-11.68,7.21-17.84,4.1-26.28-13.26-91.28-49.98-60.63-74.99,37.85-30.88-115.76-80.6-27.08-108.66,1.54-.49,3.02-1.2,4.29-2.19,6.23-4.9,13.6-20.25-58.78-54.94-.25-.12-.49-.23-.75-.33-4.13-1.7-45.62-19.94,2.38-48.52,7.07-4.21,9.18-13.53,4.54-20.32-4.13-6.04-11.9-13.97-25.85-24.22-1.2-.88-2.26-1.93-3.14-3.13C11.27,94.59-9.73,61.23,5.34,14.9c.15-.46,.28-.92,.38-1.39,.73-3.38,5.8-20.36,32.89-10.43,30,11,79,41,80,80s19,22,35,2,58-3.31,39,72.84-2.13,83.36,14.44,64.76,36.56-7.6,16.56,54.4-4,51-4,51c0,0,42-28,22,29-13.69,39.01-31.59,65.84-41.53,78.89Z"/>
    </clipPath>
  </defs>
  <path class="cls-3" d="M200.08,435.97c-4.18,5.49-11.68,7.21-17.84,4.1-26.28-13.26-91.28-49.98-60.63-74.99,37.85-30.88-115.76-80.6-27.08-108.66,1.54-.49,3.02-1.2,4.29-2.19,6.23-4.9,13.6-20.25-58.78-54.94-.25-.12-.49-.23-.75-.33-4.13-1.7-45.62-19.94,2.38-48.52,7.07-4.21,9.18-13.53,4.54-20.32-4.13-6.04-11.9-13.97-25.85-24.22-1.2-.88-2.26-1.93-3.14-3.13C11.27,94.59-9.73,61.23,5.34,14.9c.15-.46,.28-.92,.38-1.39,.73-3.38,5.8-20.36,32.89-10.43,30,11,79,41,80,80s19,22,35,2,58-3.31,39,72.84-2.13,83.36,14.44,64.76,36.56-7.6,16.56,54.4-4,51-4,51c0,0,42-28,22,29-13.69,39.01-31.59,65.84-41.53,78.89Z"/>
  <g class="cls-2">
    <path class="cls-4" d="M12.61,2.08c1.85,14.39,8.6,27.21,16.68,39.06,8.6,12.61,17.9,24.9,27.52,36.74,10.15,12.5,20.82,24.59,30.26,37.64s16.74,25.85,23.43,39.72c13.34,27.66,22.54,57.08,31.21,86.47,9.54,32.32,18.99,64.56,27.58,97.08,4.37,16.55,8.49,33.16,12.22,49.86,1.73,7.78,3.41,15.52,4.92,23.36,1.34,6.97,2.05,14.03,2.87,21.08,.41,3.6,.86,7.19,1.42,10.77,.25,1.61,2.25,2.47,3.69,2.1,1.71-.45,2.35-2.1,2.1-3.69-1.13-7.16-1.72-14.4-2.67-21.59s-2.46-14.59-3.99-21.85c-3.46-16.38-7.35-32.82-11.51-49.1-8.41-32.94-17.91-65.42-27.45-98.07-8.61-29.45-17.35-58.96-29.58-87.15-6.04-13.92-12.96-27.49-21.11-40.3s-18.57-25.74-28.72-37.95c-10.06-12.1-19.68-24.43-29.05-37.07-8.5-11.46-17.22-23.43-21.56-37.18-1.02-3.23-1.82-6.56-2.25-9.93-.21-1.62-1.23-2.98-3-3-1.46-.02-3.21,1.39-3,3h0Z"/>
    <path class="cls-4" d="M52.41,65.19c-6.94-2.45-14.67-2.94-21.97-2.94-7.75,0-15.67,.69-23.19,2.6-3.14,.8-6.41,1.85-9.14,3.64-1.35,.89-1.92,2.65-1.08,4.1,.79,1.35,2.74,1.97,4.1,1.08,.46-.3,.93-.58,1.42-.83,.25-.13,.5-.25,.76-.37,.13-.06,.27-.12,.4-.18,.33-.16-.53,.2,.01,0,1.33-.51,2.68-.98,4.05-1.36,1.57-.44,3.17-.8,4.77-1.11s3.64-.63,4.84-.77c7.63-.94,15.43-1.11,23.08-.29,.47,.05,.95,.11,1.42,.17,.63,.08,.27,.04,.13,.02,.31,.04,.61,.09,.92,.14,.93,.15,1.86,.31,2.79,.5,1.73,.36,3.43,.81,5.1,1.4,1.53,.54,3.28-.61,3.69-2.1,.46-1.66-.56-3.15-2.1-3.69h0Z"/>
    <path class="cls-4" d="M66.73,80.4c-2.52-7.9-1.28-16.2,.65-24.09,.87-3.55,1.72-7.19,3.29-10.42s3.52-6.31,5.73-9.14c2.45-3.13,5.23-6.05,8.33-8.55,1.26-1.02,1.06-3.18,0-4.24-1.25-1.25-2.98-1.02-4.24,0-5.97,4.82-11.07,11.21-14.57,18.03-1.86,3.63-2.98,7.44-3.99,11.38-1.13,4.44-2.05,8.94-2.46,13.51-.45,5.07-.08,10.25,1.47,15.12,.49,1.54,2.08,2.54,3.69,2.1,1.52-.42,2.59-2.14,2.1-3.69h0Z"/>
    <path class="cls-4" d="M16.41,187.97c6.08-2.24,12.45-3.61,18.85-4.57,1.68-.25,3.07-.43,4.97-.63s3.63-.37,5.44-.51c3.81-.29,7.64-.47,11.46-.55,15.36-.32,30.98,.78,45.88,3.26,7.35,1.22,14.67,2.78,21.8,4.99,3.7,1.15,5.28-4.64,1.6-5.79-13.74-4.26-28.2-6.36-42.5-7.58-15.52-1.32-31.3-1.48-46.76,.53-7.58,.98-15.14,2.4-22.33,5.05-1.52,.56-2.55,2.03-2.1,3.69,.4,1.46,2.16,2.66,3.69,2.1h0Z"/>
    <path class="cls-4" d="M132.61,192.08c1.6-16.28,6.82-32.61,13.79-47.53,6.9-14.77,15.66-28.9,26.61-40.94,5.24-5.76,10.81-10.9,17.11-14.93,1.36-.87,1.92-2.67,1.08-4.1-.79-1.36-2.73-1.95-4.1-1.08-12.84,8.23-23.07,20.29-31.57,32.8-9.87,14.52-17.69,30.6-22.98,47.35-2.92,9.26-4.99,18.78-5.94,28.44-.16,1.61,1.49,3,3,3,1.75,0,2.84-1.38,3-3h0Z"/>
    <path class="cls-4" d="M66.61,286.08c15.38-1.05,31.03-2.12,46.34,.28,12.39,1.95,24.45,5.87,34.8,13,5.5,3.79,10.43,8.6,14.73,13.84,1.03,1.25,3.18,1.07,4.24,0,1.24-1.24,1.03-2.99,0-4.24-8.09-9.86-18.24-17.42-30.02-22.29-13.6-5.62-28.42-7.6-43.05-7.72-9.03-.07-18.04,.51-27.05,1.13-1.62,.11-3,1.3-3,3,0,1.54,1.37,3.11,3,3h0Z"/>
    <path class="cls-4" d="M231.81,226.19c-6.25,2.02-11.78,5.67-16.92,9.67-6.02,4.69-11.48,10.07-16.6,15.72-10.83,11.96-20.49,25.26-28.24,39.43-3.34,6.11-6.5,12.53-8.33,19.28-1.01,3.73,4.77,5.32,5.79,1.6,.69-2.54,1.6-5.01,2.61-7.45-.28,.68,.17-.4,.23-.53,.15-.35,.3-.69,.46-1.04,.32-.71,.65-1.42,.98-2.13,.71-1.49,1.45-2.96,2.22-4.42,3.49-6.66,7.48-13.05,11.75-19.24,8.75-12.68,18.85-24.95,30.89-34.98,.74-.62,1.5-1.23,2.26-1.83,.06-.05,.45-.35,.07-.05,.22-.17,.45-.34,.67-.51,.37-.28,.75-.56,1.12-.83,1.44-1.05,2.92-2.04,4.44-2.97,1.4-.86,2.84-1.66,4.33-2.38,.35-.17,.7-.34,1.06-.49,.17-.08,.35-.15,.53-.23,.22-.1-.51,.2,.12-.05,.72-.28,1.43-.55,2.17-.78,1.54-.5,2.54-2.08,2.1-3.69-.42-1.51-2.14-2.6-3.69-2.1h0Z"/>
    <path class="cls-4" d="M117.41,385.97c9.74-1.94,20.08-2.13,30.1-.91,9,1.09,18.53,3.59,26.47,7.81,4.26,2.27,7.5,4.53,10.69,8.07,1.09,1.2,3.14,1.1,4.24,0,1.2-1.2,1.09-3.04,0-4.24-6.19-6.87-14.96-11.11-23.64-13.89-10.1-3.24-20.9-4.62-31.49-4.49-6.02,.08-12.05,.69-17.96,1.87-1.59,.32-2.5,2.21-2.1,3.69,.46,1.66,2.1,2.41,3.69,2.1h0Z"/>
    <path class="cls-4" d="M189.5,398.28c-.06-.33-.11-.87-.04-.19-.03-.27-.06-.54-.08-.81-.04-.55-.06-1.11-.06-1.66s.03-1.14,.08-1.71c.02-.29,.06-.58,.09-.88,.01-.16,.09-.58-.02,.13,.02-.15,.04-.3,.07-.45,.45-2.6,1.17-5.12,2.13-7.58,.13-.32,.26-.65,.39-.97s-.03,.07-.05,.11c.07-.16,.14-.32,.21-.49,.31-.7,.63-1.39,.97-2.08,.66-1.34,1.37-2.66,2.12-3.96,1.61-2.79,3.41-5.47,5.34-8.05,.59-.79,.63-.84,1.13-1.47,.55-.69,1.1-1.38,1.67-2.06,1.08-1.29,2.18-2.55,3.32-3.79,2.29-2.49,4.69-4.87,7.2-7.12,1.24-1.12,2.52-2.21,3.81-3.26,1.38-1.12,2.07-1.65,3.55-2.72,2.59-1.87,5.27-3.6,8.07-5.13,1.45-.8,2.94-1.54,4.46-2.21,.16-.07,.33-.14,.49-.21,.32-.14-.38,.15,.14-.06,.37-.14,.73-.29,1.1-.43,.72-.27,1.44-.53,2.18-.76,1.39-.44,2.81-.81,4.25-1.07,.34-.06,.69-.12,1.04-.17,.15-.03,.59-.06-.11,.02,.19-.02,.38-.04,.57-.06,.7-.07,1.41-.11,2.11-.12,3.86-.07,3.87-6.07,0-6-5.92,.1-11.62,2.09-16.88,4.67-6.1,3.01-11.7,7.02-16.88,11.41-5.4,4.59-10.35,9.73-14.71,15.32-4.08,5.22-7.76,10.79-10.38,16.9s-4.17,12.13-3.05,18.49c.28,1.6,2.23,2.5,3.69,2.1,1.69-.46,2.38-2.09,2.1-3.69h0Z"/>
  </g>
</svg>