<?xml version="1.0" encoding="UTF-8"?>
<svg id="_レイヤー_2" data-name="レイヤー 2" xmlns="http://www.w3.org/2000/svg" xmlns:xlink="http://www.w3.org/1999/xlink" viewBox="0 0 645.43 684.16">
  <defs>
    <style>
      .cls-1 {
        fill: none;
      }

      .cls-2 {
        clip-path: url(#clippath);
      }

      .cls-3 {
        fill: #fcec74;
      }

      .cls-4 {
        fill: #7db3a5;
      }

      .cls-5 {
        fill: #7eb6cd;
      }

      .cls-6 {
        fill: #9fd7ba;
      }

      .cls-7 {
        fill: #37847c;
      }
    </style>
    <clipPath id="clippath">
      <path class="cls-1" d="M335.15,684.16h-99.44c-7.79,0-14.23-4.15-14.7-9.47-4.57-51.72-20.79-301.4,80.75-402.89,8.75-8.74,28.73-3.48,26.74,7.04-16.51,86.97-53.62,324.22,18.31,389.07,7.4,6.67,.58,16.26-11.65,16.26Z"/>
    </clipPath>
  </defs>
  <path class="cls-4" d="M297.45,301.66c1.39-3.87,46.99-244.41,288.83-213.4,2.49,.32,4.84,1.49,6.45,3.41,3.48,4.16,4.01,11.72-28.65,17.31-7.14,1.22-10.82,9.17-7.27,15.49,4.41,7.87,2.06,13.8-2.45,20.06-7.41,10.28-17.68,19.06-53.16,18.54-7.07-.1-11.98,6.72-10.02,13.52,3.32,11.5-3.83,27.13-57.37,35.79-6.81,1.1-10.46,8.38-7.65,14.68,4.16,9.32,.43,23.2-37.14,38.58-5.81,2.38-11.82,4.21-17.95,5.51s-11.52,2.96-16.96,5.38l-56.66,25.15Z"/>
  <path class="cls-4" d="M316.75,303.18c-1.02-4.03-23.63-250.46-269.95-242.66-2.53,.08-5.02,1.03-6.82,2.81-3.9,3.85-5.16,11.4,27.15,20.19,7.07,1.92,10,10.27,5.82,16.29-5.2,7.49-3.41,13.69,.52,20.42,6.46,11.06,15.94,20.89,51.69,23.8,7.12,.58,11.4,7.92,8.77,14.57-4.45,11.25,1.22,27.66,54.26,41.56,6.74,1.77,9.71,9.44,6.28,15.51-5.09,8.98-2.68,23.3,33.63,42.41,5.61,2.95,11.48,5.38,17.52,7.28,5.74,1.8,11.31,4.1,16.55,7.05l54.57,30.79Z"/>
  <path class="cls-7" d="M277.63,309.8c3.1-2.84,159.06-199.04,363.39-55.69,2.1,1.48,3.68,3.65,4.22,6.17,1.17,5.42-1.96,12.52-34.21,2.02-7.05-2.3-14.17,3.15-13.97,10.57,.25,9.23-4.71,13.49-11.78,17.01-11.61,5.78-25.1,8.84-57-8.54-6.36-3.46-14.06,.38-15.52,7.47-2.47,12-16.39,22.75-69.04,5.08-6.69-2.25-13.47,2.61-13.93,9.65-.68,10.43-10.67,21.23-52.03,17.25-6.39-.61-12.71-1.81-18.89-3.56-5.86-1.66-11.85-2.81-17.93-3.21l-63.32-4.22Z"/>
  <path class="cls-7" d="M317.87,310.45c-2.57-2.62-129.13-180.65-313.65-65.44-1.9,1.19-3.37,3.01-3.96,5.17-1.27,4.66,1.12,10.99,29.68,3.36,6.25-1.67,12.19,3.4,11.67,9.85-.65,8.02,3.47,11.96,9.46,15.35,9.84,5.57,21.43,8.87,50-4.77,5.69-2.72,12.22,.99,13.16,7.23,1.59,10.56,13.21,20.57,59.84,7.64,5.93-1.64,11.6,2.9,11.67,9.05,.1,9.11,8.29,18.97,44.48,17.44,5.59-.24,11.15-.99,16.6-2.22s10.45-1.89,15.75-1.96l55.3-.71Z"/>
  <path class="cls-6" d="M299.02,301.68c-.53-3.79-67.16-221.83,145.64-301.05,2.19-.82,4.64-.87,6.8,.02,4.67,1.92,8.38,7.92-16.12,26.68-5.36,4.1-4.95,12.25,.71,15.92,7.05,4.57,7.68,10.48,6.67,17.6-1.66,11.68-6.32,23.37-35.79,38.31-5.87,2.98-6.96,10.73-2.4,15.48,7.72,8.04,8.6,24.02-31.79,54.36-5.14,3.86-4.99,11.44,.05,15.41,7.47,5.89,10.41,18.94-13.9,47.89-3.76,4.47-7.92,8.59-12.41,12.32-4.26,3.54-8.22,7.43-11.65,11.78l-35.81,45.28Z"/>
  <path class="cls-3" d="M335.15,684.16h-99.44c-7.79,0-14.23-4.15-14.7-9.47-4.57-51.72-20.79-301.4,80.75-402.89,8.75-8.74,28.73-3.48,26.74,7.04-16.51,86.97-53.62,324.22,18.31,389.07,7.4,6.67,.58,16.26-11.65,16.26Z"/>
  <g class="cls-2">
    <path class="cls-5" d="M262.23,382.67l130.5,20.23c4.27,.66,8.13-2.64,8.13-6.97v-40.46c0-4.33-3.86-7.63-8.13-6.97l-130.5,20.23c-7.96,1.23-7.96,12.7,0,13.94Z"/>
    <path class="cls-5" d="M241.23,603.67l130.5,20.23c4.27,.66,8.13-2.64,8.13-6.97v-40.46c0-4.33-3.86-7.63-8.13-6.97l-130.5,20.23c-7.96,1.23-7.96,12.7,0,13.94Z"/>
    <path class="cls-5" d="M283.5,495.67l-130.5,20.23c-4.27,.66-8.13-2.64-8.13-6.97v-40.46c0-4.33,3.86-7.63,8.13-6.97l130.5,20.23c7.96,1.23,7.96,12.7,0,13.94Z"/>
  </g>
</svg>